<svg xmlns="http://www.w3.org/2000/svg" width="375" height="80" viewBox="0 0 375 80" fill="none" role="img" aria-label="CashMind">
  <circle cx="40" cy="40" r="33" stroke="#0a9d66" stroke-width="5.5" stroke-linecap="round" stroke-dasharray="158 49" transform="rotate(120 40 40)"></circle>
  <path d="M42.70 63.63L38.70 63.63L38.70 59.08Q34.20 58.48 30.90 55.73Q27.60 52.98 26.30 48.98L26.30 48.98L31.25 46.88Q32.35 49.67 34.28 51.42Q36.20 53.17 38.70 53.77L38.70 53.77L38.70 42.38L36.35 41.63Q32.15 40.33 29.95 37.65Q27.75 34.97 27.75 31.38L27.75 31.38Q27.75 28.42 29.15 26.13Q30.55 23.82 33 22.42Q35.45 21.02 38.70 20.82L38.70 20.82L38.70 16.38L42.70 16.38L42.70 21.02Q46.65 21.73 49.48 24.13Q52.30 26.52 53.50 29.92L53.50 29.92L48.60 32.08Q46.90 27.63 42.70 26.38L42.70 26.38L42.70 37.77L44.75 38.42Q53.70 41.22 53.70 48.58L53.70 48.58Q53.70 51.48 52.30 53.75Q50.90 56.02 48.45 57.42Q46 58.83 42.70 59.13L42.70 59.13L42.70 63.63ZM38.25 36.38L38.25 36.38L38.70 36.52L38.70 26.02Q36.35 26.27 34.98 27.63Q33.60 28.97 33.60 31.07L33.60 31.07Q33.60 32.88 34.75 34.27Q35.90 35.67 38.25 36.38ZM43.35 43.83L43.35 43.83L42.70 43.67L42.70 53.98Q45.05 53.63 46.48 52.30Q47.90 50.98 47.90 48.98L47.90 48.98Q47.90 46.92 46.73 45.73Q45.55 44.52 43.35 43.83Z" fill="#14181c"></path>
  <g transform="translate(88 62.35)">
    <path d="M25.32 0.72L25.32 0.72Q20.52 0.72 16.44-0.99Q12.36-2.70 9.33-5.82Q6.30-8.94 4.65-13.17Q3-17.40 3-22.38L3-22.38Q3-27.36 4.65-31.56Q6.30-35.76 9.33-38.88Q12.36-42 16.44-43.71Q20.52-45.42 25.32-45.42L25.32-45.42Q30.06-45.42 33.90-43.80Q37.74-42.18 40.38-39.51Q43.02-36.84 44.16-33.66L44.16-33.66L36.84-30.24Q35.58-33.60 32.58-35.79Q29.58-37.98 25.32-37.98L25.32-37.98Q21.12-37.98 17.91-36.03Q14.70-34.08 12.93-30.54Q11.16-27 11.16-22.38L11.16-22.38Q11.16-17.70 12.93-14.16Q14.70-10.62 17.91-8.67Q21.12-6.72 25.32-6.72L25.32-6.72Q29.58-6.72 32.58-8.88Q35.58-11.04 36.84-14.46L36.84-14.46L44.16-11.04Q43.02-7.86 40.38-5.19Q37.74-2.52 33.90-0.90Q30.06 0.72 25.32 0.72ZM60 0.72L60 0.72Q54.90 0.72 51.84-1.80Q48.78-4.32 48.78-8.64L48.78-8.64Q48.78-12.72 51.54-15.42Q54.30-18.12 60.06-19.08L60.06-19.08L69.78-20.64L69.78-21.72Q69.78-23.82 68.13-25.23Q66.48-26.64 63.78-26.64L63.78-26.64Q61.20-26.64 59.28-25.29Q57.36-23.94 56.46-21.72L56.46-21.72L50.04-24.84Q51.48-28.68 55.32-31.02Q59.16-33.36 64.08-33.36L64.08-33.36Q68.10-33.36 71.13-31.86Q74.16-30.36 75.90-27.75Q77.64-25.14 77.64-21.72L77.64-21.72L77.64 0L70.20 0L70.20-3.42Q66.36 0.72 60 0.72ZM56.94-8.94L56.94-8.94Q56.94-7.26 58.20-6.27Q59.46-5.28 61.44-5.28L61.44-5.28Q65.16-5.28 67.47-7.59Q69.78-9.90 69.78-13.32L69.78-13.32L69.78-14.64L61.56-13.26Q56.94-12.42 56.94-8.94ZM97.32 0.72L97.32 0.72Q92.10 0.72 88.23-1.77Q84.36-4.26 82.92-8.52L82.92-8.52L88.80-11.34Q90.06-8.58 92.31-7.02Q94.56-5.46 97.32-5.46L97.32-5.46Q99.42-5.46 100.71-6.39Q102-7.32 102-8.94L102-8.94Q102-10.38 100.89-11.16Q99.78-11.94 98.22-12.36L98.22-12.36L92.88-13.86Q88.74-15 86.61-17.49Q84.48-19.98 84.48-23.34L84.48-23.34Q84.48-26.34 86.04-28.59Q87.60-30.84 90.30-32.10Q93-33.36 96.54-33.36L96.54-33.36Q101.16-33.36 104.70-31.11Q108.24-28.86 109.74-24.90L109.74-24.90L103.74-22.08Q102.90-24.30 100.92-25.62Q98.94-26.94 96.48-26.94L96.48-26.94Q94.50-26.94 93.36-26.04Q92.22-25.14 92.22-23.70L92.22-23.70Q92.22-22.32 93.27-21.54Q94.32-20.76 96.06-20.28L96.06-20.28L101.28-18.72Q105.30-17.52 107.49-15.09Q109.68-12.66 109.68-9.24L109.68-9.24Q109.68-6.24 108.12-4.02Q106.56-1.80 103.77-0.54Q100.98 0.72 97.32 0.72ZM123.60 0L115.74 0L115.74-45.42L123.60-45.42L123.60-29.34Q124.98-31.32 127.26-32.34Q129.54-33.36 132.36-33.36L132.36-33.36Q135.96-33.36 138.72-31.77Q141.48-30.18 143.07-27.42Q144.66-24.66 144.66-21L144.66-21L144.66 0L136.80 0L136.80-19.14Q136.80-22.38 134.94-24.27Q133.08-26.16 130.20-26.16L130.20-26.16Q127.32-26.16 125.46-24.24Q123.60-22.32 123.60-19.14L123.60-19.14L123.60 0Z" fill="#14181c"></path>
    <path d="M157.20 0L153.30 0L153.30-44.70L156.60-44.70L172.44-21.06L188.40-44.70L191.70-44.70L191.70 0L187.80 0L187.80-37.02L172.56-14.28L172.38-14.28L157.20-36.96L157.20 0ZM205.86-38.10L202.26-38.10L202.26-44.70L205.86-44.70L205.86-38.10ZM205.86 0L202.26 0L202.26-31.86L205.86-31.86L205.86 0ZM219.36 0L215.76 0L215.76-31.86L219.36-31.86L219.36-27.54Q220.74-29.88 223.23-31.23Q225.72-32.58 228.84-32.58L228.84-32.58Q232.08-32.58 234.81-31.08Q237.54-29.58 239.16-26.91Q240.78-24.24 240.78-20.82L240.78-20.82L240.78 0L237.18 0L237.18-19.80Q237.18-24.12 234.63-26.58Q232.08-29.04 228.30-29.04L228.30-29.04Q224.22-29.04 221.79-26.28Q219.36-23.52 219.36-19.20L219.36-19.20L219.36 0ZM264.42 0.72L264.42 0.72Q259.92 0.72 256.38-1.47Q252.84-3.66 250.80-7.41Q248.76-11.16 248.76-15.96L248.76-15.96Q248.76-20.70 250.80-24.45Q252.84-28.20 256.38-30.39Q259.92-32.58 264.42-32.58L264.42-32.58Q268.44-32.58 271.65-30.81Q274.86-29.04 276.78-25.98L276.78-25.98L276.78-45.42L280.38-45.42L280.38 0L276.78 0L276.78-6.06Q274.92-2.88 271.65-1.08Q268.38 0.72 264.42 0.72ZM264.54-2.88L264.54-2.88Q267.96-2.88 270.72-4.59Q273.48-6.30 275.10-9.24Q276.72-12.18 276.72-15.96L276.72-15.96Q276.72-19.68 275.10-22.62Q273.48-25.56 270.72-27.27Q267.96-28.98 264.54-28.98L264.54-28.98Q261.12-28.98 258.42-27.27Q255.72-25.56 254.16-22.62Q252.60-19.68 252.60-15.96L252.60-15.96Q252.60-12.18 254.13-9.24Q255.66-6.30 258.39-4.59Q261.12-2.88 264.54-2.88Z" fill="#0a9d66"></path>
  </g>
</svg>
