<svg xmlns="http://www.w3.org/2000/svg" width="80" height="80" viewBox="0 0 80 80" fill="none" role="img" aria-label="CashMind app icon">
  <rect x="0.5" y="0.5" width="79" height="79" rx="17.5" fill="#fcfcfb" stroke="#eceae6"></rect>
  <g transform="translate(16 16) scale(0.6)">
    <circle cx="40" cy="40" r="33" stroke="#0a9d66" stroke-width="5.5" stroke-linecap="round" stroke-dasharray="158 49" transform="rotate(120 40 40)"></circle>
    <path d="M42.70 63.63L38.70 63.63L38.70 59.08Q34.20 58.48 30.90 55.73Q27.60 52.98 26.30 48.98L26.30 48.98L31.25 46.88Q32.35 49.67 34.28 51.42Q36.20 53.17 38.70 53.77L38.70 53.77L38.70 42.38L36.35 41.63Q32.15 40.33 29.95 37.65Q27.75 34.97 27.75 31.38L27.75 31.38Q27.75 28.42 29.15 26.13Q30.55 23.82 33 22.42Q35.45 21.02 38.70 20.82L38.70 20.82L38.70 16.38L42.70 16.38L42.70 21.02Q46.65 21.73 49.48 24.13Q52.30 26.52 53.50 29.92L53.50 29.92L48.60 32.08Q46.90 27.63 42.70 26.38L42.70 26.38L42.70 37.77L44.75 38.42Q53.70 41.22 53.70 48.58L53.70 48.58Q53.70 51.48 52.30 53.75Q50.90 56.02 48.45 57.42Q46 58.83 42.70 59.13L42.70 59.13L42.70 63.63ZM38.25 36.38L38.25 36.38L38.70 36.52L38.70 26.02Q36.35 26.27 34.98 27.63Q33.60 28.97 33.60 31.07L33.60 31.07Q33.60 32.88 34.75 34.27Q35.90 35.67 38.25 36.38ZM43.35 43.83L43.35 43.83L42.70 43.67L42.70 53.98Q45.05 53.63 46.48 52.30Q47.90 50.98 47.90 48.98L47.90 48.98Q47.90 46.92 46.73 45.73Q45.55 44.52 43.35 43.83Z" fill="#14181c"></path>
  </g>
</svg>